<svg xmlns="http://www.w3.org/2000/svg" viewBox="0 0 1366 768"><path d="M778.7 378.2c8.6 28 5 53.3-8.9 79.3l-2.9 5.3h-6c-7.2 0-13.8-1.1-20-3.1-9.5 26.4-27.7 51.7-51.9 66.2l-5.7 3.5-5.7-3.5c-24.1-14.6-42.4-39.9-51.9-66.2-6.2 2.1-12.8 3.2-20 3.1h-6l-2.9-5.3c-14-26-17.5-51.3-8.9-79.3-3.1-.6-6.1-1.4-9.1-2.4l-6.1-2-.8-6.4c-3.2-25.3-.4-51.3 16.7-71.4 2.6-3 5.3-5.8 8.3-8.3-1.3-1.4-2.6-3-3.7-4.6l-5.2-7.7 7.2-5.9c21.4-17.6 45.3-23.1 71-18v-13.1l17.2.2 17.2-.2v13.1c25.7-5.1 49.6.4 71 18l7.2 5.9-5.2 7.7c-1.1 1.7-2.4 3.2-3.7 4.6 3 2.5 5.8 5.3 8.3 8.3 17.1 20.1 19.9 46.1 16.7 71.4l-.8 6.4-6.1 2c-3.2 1-6.2 1.8-9.3 2.4" fill="#2f2c3d"/><path d="M768.2 378.5c8.9 26.5 5.9 49.8-7.3 74.2-23.2.1-40.3-14.2-54.9-34.5 10.8-12.2 20.7-25.4 26.6-41.7 10.3 2.3 24.6 3.7 35.6 2m-133.5 76c8.8 25.5 26.2 49.2 48.2 62.7l.5.3.5-.3c22-13.5 39.4-37.2 48.2-62.7-13.5-8-23.4-17.5-32.8-28.8-5.4 5.8-10.8 11.5-15.8 17.3-5.1-5.8-10.5-11.5-15.8-17.3-9.6 11.4-19.5 20.9-33 28.8zm-36.2-76c-8.9 26.5-5.9 49.8 7.3 74.2 23.2.1 40.3-14.2 54.9-34.5-10.8-12.2-20.7-25.4-26.7-41.7-10.3 2.3-24.6 3.7-35.5 2zm84.8-129.7l7-.1v16c30.1-9.9 54.4-4.1 74.7 12.7-3.7 5.4-8.3 8.5-13.3 10.1 25.1 14.2 38.1 38.7 33 78.6-5.6 1.8-11.3 2.9-17.1 3.3-10.6.5-21.2-.5-31.9-3.1 3.3-14 3.7-30.2-.4-49.6 1.1 42.5-14.7 77.3-51.4 102.4v.7c-.2-.1-.3-.2-.5-.3-.2.1-.3.2-.5.3v-.7c-36.7-25.2-52.5-59.9-51.4-102.4-4.2 19.4-3.8 35.6-.4 49.6-10.7 2.6-21.3 3.7-31.9 3.1-5.9-.4-11.5-1.4-17.1-3.3-5.1-39.9 7.9-64.5 33-78.6-5-1.7-9.7-4.7-13.3-10.1 20.3-16.7 44.6-22.6 74.7-12.7v-16l6.8.1z" fill="#f78f2e"/><path d="M773.1 403.3c-.8 13.6-4.9 26.8-12.2 40.4-21.3.1-37.5-12-51.3-29.6 9.3-11.1 17.7-23.1 23-37.5 10.3 2.3 24.6 3.7 35.6 1.9 2.8 8.5 4.5 16.7 4.9 24.8m-135.7 49.5c9.4 22.7 25.5 43.2 45.4 55.4l.5.3.5-.3c19.9-12.2 36-32.7 45.4-55.4-12.1-7.6-21.3-16.6-30-27.1-5.4 5.8-10.8 11.5-15.8 17.3-5.1-5.8-10.5-11.5-15.8-17.3-8.9 10.6-18 19.5-30.2 27.1zm-43.9-49.5c.8 13.6 4.9 26.8 12.2 40.4 21.3.1 37.5-12 51.3-29.6-9.3-11.1-17.7-23.1-23-37.5-10.3 2.3-24.6 3.7-35.6 1.9-2.8 8.5-4.4 16.7-4.9 24.8zm89.8-154.5l7-.1v16c27.8-9.2 50.6-4.9 69.9 9l4.8 3.7c-2.6 5-8.2 8.4-13.3 10.1 20.4 11.5 32.8 29.9 34 57.8-.1 3.8-.5 7.7-1 11.8-5.6 1.8-11.3 2.9-17.1 3.3-10 .5-20.1-.4-30.3-2.7.8-5.8 1.1-12 .9-18.6.4-9.5-.5-19.9-2.9-31.4 1.1 42.5-14.7 77.3-51.4 102.4v.7c-.2-.1-.3-.2-.5-.3-.2.1-.3.2-.5.3v-.7c-36.7-25.2-52.5-59.9-51.4-102.4-2.5 11.5-3.3 21.9-2.9 31.4-.3 6.6.1 12.8.9 18.6-10.2 2.4-20.2 3.2-30.3 2.7-5.9-.4-11.5-1.4-17.1-3.3-.5-4.1-.8-8-1-11.8 1.2-27.9 13.6-46.3 34-57.8-7.7-2.6-10.9-5.9-13.3-10.1l4.8-3.7c19.3-13.9 42.2-18.2 69.9-9v-16l6.8.1z" fill="#fdbb41"/></svg>