<svg xmlns="http://www.w3.org/2000/svg" viewBox="0 0 80 100"><path d="M71 48.3c2.9 9.6 1.7 18.3-3.1 27.2l-1 1.8h-2.1c-2.5 0-4.7-.4-6.9-1.1C54.8 85.3 48.6 94 40.3 99l-2 1.2-2-1.2C28 94 21.8 85.3 18.5 76.3c-2.1.7-4.4 1.1-6.9 1.1H9.7l-1-1.8c-4.8-8.9-6-17.6-3.1-27.2-1.1-.2-2.1-.5-3.1-.8l-2.1-.7-.3-2.2C-1 36 0 27 5.9 20.2c.9-1 1.8-2 2.8-2.8-.4-.5-.9-1-1.3-1.6l-1.8-2.6 2.5-2c7.3-6 15.5-7.9 24.3-6.2V.4l5.9.1 5.9-.1v4.5c8.8-1.7 17 .1 24.3 6.2l2.5 2-1.8 2.6c-.4.6-.8 1.1-1.3 1.6 1 .9 2 1.8 2.8 2.8 5.9 6.9 6.8 15.8 5.7 24.5l-.3 2.2-2.1.7c-.9.4-1.9.6-3 .8" fill="#2f2c3d"/><path d="M67.4 48.4c3.1 9.1 2 17.1-2.5 25.4-8 0-13.8-4.9-18.8-11.8 3.7-4.2 7.1-8.7 9.1-14.3 3.6.8 8.5 1.3 12.2.7M21.7 74.5c3 8.7 9 16.9 16.5 21.5l.2.1.2-.1c7.5-4.6 13.5-12.8 16.5-21.5-4.6-2.7-8-6-11.2-9.9-1.9 2-3.7 3.9-5.4 5.9-1.7-2-3.6-3.9-5.4-5.9-3.4 3.9-6.8 7.2-11.4 9.9zM9.3 48.4c-3.1 9.1-2 17.1 2.5 25.4 8 0 13.8-4.9 18.8-11.8-3.7-4.2-7.1-8.7-9.2-14.3-3.5.8-8.4 1.3-12.1.7zM38.3 4h2.4v5.5C51.1 6 59.4 8 66.4 13.8c-1.3 1.9-2.8 2.9-4.6 3.5 8.6 4.9 13.1 13.3 11.3 27-1.9.6-3.9 1-5.9 1.1-3.6.2-7.3-.2-10.9-1.1 1.1-4.8 1.3-10.4-.1-17 .4 14.6-5 26.5-17.6 35.1v.2c-.1 0-.1-.1-.2-.1s-.1.1-.2.1v-.2c-12.6-8.6-18-20.5-17.6-35.1-1.4 6.7-1.3 12.2-.1 17-3.7.9-7.3 1.3-10.9 1.1-2-.1-3.9-.5-5.9-1.1C1.9 30.5 6.3 22.1 15 17.2c-1.7-.6-3.3-1.6-4.6-3.5C17.4 8 25.7 6 36 9.4V3.9l2.3.1z" fill="#f78f2e"/><path d="M69.1 56.9c-.3 4.7-1.7 9.2-4.2 13.9-7.3 0-12.9-4.1-17.6-10.1 3.2-3.8 6.1-7.9 7.9-12.9 3.5.8 8.4 1.3 12.2.7 1 2.9 1.6 5.7 1.7 8.4m-46.5 17c3.2 7.8 8.7 14.8 15.6 19l.2.1.2-.1c6.8-4.2 12.3-11.2 15.6-19-4.1-2.6-7.3-5.7-10.3-9.3-1.9 2-3.7 3.9-5.4 5.9-1.7-2-3.6-3.9-5.4-5.9-3.2 3.7-6.3 6.7-10.5 9.3zm-15.1-17c.3 4.7 1.7 9.2 4.2 13.9 7.3 0 12.9-4.1 17.6-10.1-3.2-3.8-6.1-7.9-7.9-12.9-3.5.8-8.4 1.3-12.2.7-.9 2.9-1.5 5.7-1.7 8.4zM38.3 4h2.4v5.5c9.5-3.2 17.3-1.7 24 3.1l1.6 1.3c-.9 1.7-2.8 2.9-4.6 3.5 7 3.9 11.2 10.3 11.7 19.8 0 1.3-.2 2.6-.3 4-1.9.6-3.9 1-5.9 1.1-3.4.2-6.9-.1-10.4-.9.3-2 .4-4.1.3-6.4.1-3.3-.2-6.8-1-10.8.4 14.6-5 26.5-17.6 35.1v.2c-.1 0-.1-.1-.2-.1s-.1.1-.2.1v-.2c-12.6-8.6-18-20.5-17.6-35.1-.9 3.9-1.1 7.5-1 10.8-.1 2.3 0 4.4.3 6.4-3.5.8-6.9 1.1-10.4.9-2-.1-3.9-.5-5.9-1.1-.2-1.4-.3-2.7-.3-4 .5-9.7 4.8-16 11.8-20-2.6-.9-3.7-2-4.6-3.5l1.6-1.3c6.6-4.8 14.5-6.2 24-3.1V3.9l2.3.1z" fill="#fdbb41"/></svg>